<svg xmlns="http://www.w3.org/2000/svg" viewBox="0 0 2362 2362" fill="#06b6d4">
<g transform="translate(0,2362) scale(0.1,-0.1)" stroke="none">
<path d="M12144 21521 c-56 -26 -95 -75 -190 -242 -44 -79 -115 -202 -156
-274 -41 -71 -101 -175 -133 -230 -32 -55 -65 -113 -75 -130 -10 -16 -54 -93
-97 -170 -44 -77 -139 -241 -211 -365 -72 -124 -164 -283 -205 -355 -40 -71
-108 -188 -149 -260 -41 -71 -101 -175 -133 -230 -32 -55 -65 -113 -75 -130
-10 -16 -53 -93 -97 -170 -44 -77 -104 -180 -133 -230 -51 -86 -119 -205 -283
-490 -41 -71 -108 -188 -149 -260 -41 -71 -101 -175 -133 -230 -32 -55 -65
-113 -75 -130 -10 -16 -53 -93 -97 -170 -44 -77 -104 -180 -133 -230 -29 -49
-87 -148 -128 -220 -107 -187 -325 -567 -437 -760 -54 -93 -179 -310 -229
-397 -11 -21 -45 -79 -73 -130 -29 -50 -53 -95 -53 -100 0 -4 83 -9 185 -10
102 -1 204 -2 226 -3 47 0 22 -34 194 265 43 74 102 176 130 225 56 97 163
282 282 488 40 70 107 187 149 260 42 72 111 193 154 267 98 170 218 378 286
495 29 50 86 149 127 220 41 72 108 189 149 260 41 72 101 175 133 230 32 55
65 114 75 130 20 34 122 212 154 267 98 172 181 317 226 393 29 50 88 151 130
225 43 74 111 194 152 265 137 236 190 330 208 360 28 48 130 227 154 268 96
170 200 346 203 343 3 -2 4 -1142 4 -2532 0 -1391 2 -2537 5 -2546 4 -15 22
-17 137 -17 73 0 159 -5 191 -10 33 -6 62 -8 65 -5 3 3 7 1138 8 2522 1 1385
2 2528 2 2542 1 33 10 22 74 -90 30 -52 78 -135 107 -185 51 -86 117 -200 282
-490 41 -71 99 -170 128 -220 53 -89 139 -239 282 -490 41 -71 99 -170 128
-220 45 -76 127 -218 226 -393 51 -89 135 -234 184 -317 46 -78 159 -274 226
-393 22 -38 40 -69 264 -457 73 -126 141 -243 150 -260 26 -45 124 -215 205
-355 40 -69 98 -170 130 -225 32 -55 65 -113 75 -130 10 -16 43 -75 75 -130
32 -55 92 -158 133 -230 41 -71 96 -167 122 -212 72 -126 42 -115 291 -111
120 2 221 6 224 10 4 4 -3 24 -15 45 -24 40 -117 201 -250 433 -42 74 -101
176 -130 225 -53 90 -141 243 -282 490 -41 72 -99 171 -128 220 -45 76 -127
218 -226 393 -51 89 -135 234 -184 317 -45 76 -129 223 -226 393 -42 73 -133
230 -262 452 -73 124 -140 241 -150 260 -11 19 -45 80 -77 135 -32 55 -92 159
-133 230 -41 72 -98 169 -126 218 -28 48 -61 104 -72 125 -12 20 -47 82 -79
137 -145 252 -206 357 -260 450 -32 55 -65 114 -75 130 -10 17 -43 75 -75 130
-32 55 -90 156 -130 225 -40 69 -98 170 -130 225 -32 55 -65 114 -75 130 -10
17 -43 75 -75 130 -31 55 -68 118 -82 140 -13 22 -40 74 -59 115 -20 41 -48
88 -62 103 -62 66 -149 84 -228 48z"/>
<path d="M10936 15647 c-80 -81 -127 -159 -168 -278 -30 -87 -32 -104 -33
-224 0 -239 2 -243 399 -820 7 -9 -3 -42 -31 -107 -102 -231 -166 -422 -215
-640 -30 -136 -33 -425 -5 -497 15 -40 16 -47 3 -60 -20 -19 -35 -12 -194 93
-564 374 -1011 945 -1248 1593 -46 126 -109 347 -134 473 -12 57 -22 106 -24
107 -1 1 -303 9 -671 17 -369 9 -863 20 -1100 26 -541 13 -1224 27 -1925 40
-300 6 -738 15 -975 20 -236 6 -1035 21 -1775 35 -740 13 -1371 26 -1403 29
-31 2 -57 0 -57 -5 0 -5 9 -9 20 -9 31 0 273 -65 428 -114 843 -271 1653 -754
2305 -1374 548 -521 978 -1105 1325 -1798 198 -395 367 -825 488 -1239 25 -88
54 -187 64 -220 l18 -60 83 2 c401 8 863 6 991 -5 1680 -146 3087 -863 4179
-2127 308 -357 609 -789 864 -1239 26 -47 29 -48 42 -30 8 10 24 37 35 59 11
22 61 108 111 190 941 1561 2278 2585 3888 2978 356 87 659 137 1027 169 128
11 590 13 991 5 l83 -2 18 60 c10 33 39 132 64 220 150 514 380 1063 638 1523
727 1298 1859 2282 3215 2796 225 85 632 206 693 206 11 0 20 4 20 9 0 5 -26
7 -57 5 -32 -3 -663 -16 -1403 -29 -740 -14 -1538 -29 -1775 -35 -236 -5 -675
-14 -975 -20 -701 -13 -1384 -27 -1925 -40 -236 -6 -731 -17 -1100 -26 -368
-8 -670 -16 -671 -17 -2 -1 -12 -50 -24 -107 -25 -126 -88 -347 -134 -473
-237 -648 -684 -1219 -1248 -1593 -159 -105 -174 -112 -194 -93 -13 13 -12 20
3 60 28 72 25 361 -5 497 -49 218 -113 409 -215 640 -28 65 -38 98 -31 107
397 577 399 581 399 820 -1 120 -3 137 -34 225 -46 134 -131 263 -212 320
l-29 22 -51 -38 c-88 -64 -254 -267 -434 -529 -102 -150 -81 -140 -190 -89
-297 141 -683 141 -980 0 -109 -51 -88 -61 -190 89 -179 261 -346 465 -433
528 -27 21 -53 37 -57 37 -4 0 -35 -28 -69 -63z m571 -1622 c265 -140 343
-187 343 -204 0 -42 -77 -78 -184 -88 -64 -5 -80 -3 -120 17 -95 45 -179 157
-192 255 -13 93 10 96 153 20z m1533 10 c0 -73 -36 -152 -96 -213 -76 -76
-128 -96 -222 -88 -108 9 -189 50 -180 91 4 20 435 254 471 255 25 0 27 -2 27
-45z m2250 -1546 c142 -23 244 -98 291 -215 l24 -59 0 -655 0 -655 -24 -59
c-60 -150 -201 -226 -421 -226 -211 0 -343 66 -406 202 l-29 63 0 675 0 675
26 55 c14 31 41 72 58 93 82 93 286 138 481 106z m-2731 -907 c85 -488 157
-897 159 -909 l4 -23 -156 0 c-86 0 -156 1 -157 3 0 1 -48 313 -108 692 -59
380 -110 681 -113 670 -2 -11 -52 -323 -109 -692 l-104 -673 -157 0 c-144 0
-156 1 -152 18 2 9 72 406 154 882 83 476 153 877 156 893 l6 27 211 0 212 0
154 -888z m1004 841 c8 -27 72 -258 143 -515 l129 -468 3 515 2 515 145 0 145
0 0 -910 0 -911 -157 3 -157 3 -135 494 -136 495 -3 -497 -2 -497 -150 0 -150
0 0 910 0 910 155 0 154 0 14 -47z m-4175 26 c17 -6 47 -30 67 -55 20 -24 41
-49 48 -56 7 -7 49 -60 94 -118 44 -58 151 -193 237 -300 86 -107 214 -267
284 -354 70 -88 152 -189 182 -226 30 -37 66 -82 80 -100 83 -107 173 -211
211 -243 44 -38 51 -40 129 -37 85 3 80 -48 80 730 l0 686 28 32 c32 39 75 51
180 52 92 0 138 -18 156 -62 12 -27 14 -174 15 -803 1 -424 -1 -785 -5 -804
-4 -20 -23 -49 -47 -73 l-39 -38 -291 0 -290 0 -41 26 c-23 15 -57 47 -77 73
-20 25 -95 118 -165 207 -178 222 -297 372 -374 469 -333 421 -527 663 -544
678 -12 9 -40 27 -63 38 -48 25 -112 22 -144 -7 -18 -17 -19 -39 -19 -694 0
-395 -4 -680 -9 -686 -5 -5 -11 -20 -13 -34 -2 -18 -15 -31 -48 -47 -37 -18
-62 -22 -145 -22 -108 -1 -110 0 -143 43 l-22 29 0 812 0 812 22 28 c40 51 60
54 359 55 173 0 288 -4 307 -11z m1126 -10 c55 -43 56 -51 56 -401 0 -303 -1
-325 -20 -355 -43 -71 -153 -66 -190 7 -19 37 -20 60 -20 356 0 304 1 318 21
350 38 62 105 81 153 43z m-1053 -932 c60 -40 59 -39 57 -415 l-3 -344 -28
-24 c-53 -46 -109 -44 -158 6 l-29 28 0 349 c1 388 -1 376 72 408 44 19 50 19
89 -8z"/>
<path d="M15090 12222 c-19 -9 -40 -28 -47 -42 -10 -19 -13 -164 -13 -620 0
-456 3 -601 13 -620 26 -53 125 -76 192 -45 62 30 60 10 60 665 0 492 -2 602
-14 623 -29 54 -124 73 -191 39z"/>
<path d="M18620 10558 c-28 -107 -119 -195 -226 -219 -30 -7 -54 -14 -54 -16
0 -2 25 -48 57 -101 31 -53 90 -155 131 -227 166 -292 231 -404 282 -490 29
-49 89 -153 133 -230 44 -77 87 -153 97 -170 10 -16 43 -75 75 -130 32 -55 82
-140 111 -190 29 -49 84 -146 124 -215 39 -69 81 -143 94 -165 13 -22 49 -84
80 -137 31 -54 80 -140 110 -190 29 -51 88 -154 131 -228 43 -74 85 -148 95
-165 10 -16 43 -75 75 -130 32 -55 90 -156 130 -225 40 -69 98 -170 130 -225
32 -55 65 -113 75 -130 10 -16 43 -75 75 -130 32 -55 90 -156 130 -225 40 -69
98 -170 130 -225 32 -55 65 -113 75 -130 90 -154 128 -226 116 -222 -14 6
-213 118 -446 252 -74 43 -198 114 -275 158 -77 43 -156 89 -175 100 -19 11
-96 55 -170 97 -494 281 -730 416 -760 435 -19 12 -107 63 -195 112 -88 50
-221 125 -295 168 -74 43 -198 114 -275 158 -77 43 -153 87 -170 97 -16 10
-93 54 -170 98 -342 195 -499 285 -625 357 -130 75 -373 213 -455 260 -22 12
-101 57 -175 100 -211 122 -428 246 -930 532 -96 55 -236 135 -310 178 -74 43
-198 114 -275 158 -77 44 -157 89 -177 101 -192 109 -189 109 -217 96 -35 -16
-338 -217 -345 -229 -4 -5 16 -22 44 -38 84 -47 397 -225 540 -308 74 -43 198
-114 275 -158 77 -43 156 -89 175 -100 19 -11 96 -55 170 -97 148 -84 405
-231 460 -263 60 -35 297 -170 480 -275 96 -54 236 -134 310 -177 74 -43 198
-114 275 -158 77 -43 154 -87 170 -97 17 -10 93 -54 170 -98 343 -195 499
-285 625 -357 157 -90 397 -228 455 -260 22 -12 101 -57 175 -100 74 -43 198
-114 275 -158 77 -43 154 -87 170 -97 29 -17 114 -66 490 -280 94 -53 231
-132 305 -175 74 -43 198 -114 275 -158 77 -44 157 -89 177 -101 20 -11 80
-45 133 -75 53 -29 95 -55 93 -57 -3 -2 -1824 -6 -4049 -9 -12414 -16 -12734
-16 -12723 -5 7 7 72 46 145 87 74 42 194 110 267 152 73 42 149 86 170 97
185 105 332 189 357 204 17 10 95 55 175 100 80 46 205 117 278 159 73 42 149
86 170 97 136 78 493 282 847 484 99 56 261 149 360 205 159 90 393 224 480
275 75 43 336 192 500 285 99 56 196 111 215 122 19 11 98 57 175 100 77 44
201 115 275 158 112 65 372 213 528 301 89 51 328 187 452 259 151 87 172 99
359 205 72 41 151 86 175 100 24 14 98 56 165 93 66 38 123 71 125 75 5 8
-146 117 -281 202 l-82 52 -198 -112 c-329 -187 -551 -313 -693 -395 -162 -93
-469 -269 -525 -300 -54 -31 -290 -165 -455 -260 -74 -42 -153 -87 -175 -100
-22 -12 -101 -57 -175 -100 -74 -43 -153 -88 -175 -100 -62 -35 -326 -185
-360 -205 -16 -10 -93 -54 -170 -97 -77 -44 -201 -115 -275 -158 -74 -43 -153
-88 -175 -100 -89 -51 -322 -183 -355 -202 -19 -11 -98 -56 -175 -100 -77 -44
-221 -126 -320 -183 -205 -118 -479 -274 -640 -365 -60 -34 -202 -115 -315
-180 -371 -214 -849 -485 -855 -485 -3 0 38 74 162 287 31 54 89 155 130 226
40 70 106 184 147 255 40 70 99 172 131 227 32 55 65 114 75 130 10 17 54 93
97 170 44 77 139 241 211 365 72 124 164 284 205 355 41 72 108 189 149 260
41 72 101 175 133 230 32 55 65 114 75 130 10 17 54 93 97 170 44 77 139 241
211 365 72 124 164 284 205 355 41 72 108 189 149 260 41 72 101 175 133 230
32 55 65 114 75 130 57 98 70 121 70 128 0 4 -15 7 -32 7 -54 0 -160 29 -206
56 -23 14 -56 44 -73 67 -17 23 -36 42 -42 42 -6 0 -35 -40 -63 -90 -28 -49
-76 -133 -107 -185 -30 -52 -89 -153 -130 -225 -41 -71 -108 -188 -149 -260
-41 -71 -101 -175 -133 -230 -32 -55 -65 -113 -75 -130 -10 -16 -53 -93 -97
-170 -44 -77 -104 -180 -133 -230 -28 -49 -62 -108 -75 -130 -12 -22 -48 -83
-78 -135 -30 -52 -89 -153 -130 -225 -41 -71 -108 -188 -149 -260 -41 -71
-101 -175 -133 -230 -32 -55 -65 -113 -75 -130 -19 -33 -119 -207 -154 -267
-11 -21 -44 -77 -72 -125 -119 -207 -212 -367 -284 -493 -89 -155 -202 -351
-285 -495 -54 -93 -179 -310 -229 -397 -22 -40 -73 -127 -201 -348 -119 -205
-120 -207 -118 -275 1 -44 -3 -62 -15 -72 -15 -11 -14 -12 11 -13 33 0 45 -24
28 -52 -11 -18 -10 -19 10 -13 14 5 39 -2 75 -20 l53 -27 3273 2 c1800 1 4200
3 5333 5 5660 9 9640 8 9684 -5 54 -14 102 -6 158 26 24 14 48 21 58 17 14 -5
16 -2 11 14 -10 31 3 53 33 53 22 1 24 2 9 11 -14 8 -18 24 -18 72 0 56 -5 70
-47 142 -74 129 -190 330 -273 475 -42 74 -101 176 -130 225 -56 94 -150 259
-280 485 -42 74 -101 176 -130 225 -60 102 -167 287 -280 485 -42 74 -101 176
-130 225 -29 50 -87 149 -128 220 -97 171 -209 365 -362 629 -69 119 -161 278
-205 355 -44 77 -136 236 -205 355 -69 118 -135 232 -146 253 -12 21 -46 81
-77 133 -30 52 -90 156 -132 230 -43 74 -101 174 -129 223 -28 48 -61 104 -72
125 -12 20 -46 80 -76 132 -31 52 -73 125 -94 162 -22 37 -42 68 -46 68 -4 0
-12 -19 -18 -42z"/>
</g>
</svg>
